# xmcd
#
# Track frame offsets:
# 150
# 15396
# 29367
# 43139
# 56696
# 68480
# 82785
# 94120
# 107278
# 123159
# 137058
# 152396
# 167766
# 181240
#
# Disc length: 2563 seconds
#
#
# Revision: 3
# Processed by: cddbd v1.5.2PL0 Copyright (c) Steve Scherf et al.
# Submitted via: FreeRIP 2.951 
#
DISCID=9d0a010e
DTITLE=Teodoro e Sampaio - O Garrafão
DYEAR=2002
DGENRE=Country
TTITLE0=O Garrafão
TTITLE1=Raimunda
TTITLE2=Meu Barraco Caiu
TTITLE3=Vida de Cachorro
TTITLE4=Amor, Amasso e Paixão
TTITLE5=Paixão Bandida
TTITLE6=Mulher Perigosa
TTITLE7=O Pau Quebrou
TTITLE8=Se o Remédio não Voltar
TTITLE9=A Rabada da Cunhada
TTITLE10=Tô na Boca da Sogra
TTITLE11=Chuva de Amor
TTITLE12=Chora Coração
TTITLE13=Fiquem com Deus
EXTD=ano:2002 - Warner Music - 092743587-2
EXTT0=
EXTT1=
EXTT2=
EXTT3=
EXTT4=
EXTT5=
EXTT6=
EXTT7=
EXTT8=
EXTT9=
EXTT10=
EXTT11=
EXTT12=
EXTT13=
PLAYORDER=
